<?xml version="1.0" encoding="UTF-8"?>
<svg id="System_Health_x5F_gradient" xmlns="http://www.w3.org/2000/svg" version="1.1" xmlns:xlink="http://www.w3.org/1999/xlink" viewBox="0 0 374.87 374.87">
  <!-- Generator: Adobe Illustrator 30.6.0, SVG Export Plug-In . SVG Version: 2.1.4 Build 109)  -->
  <defs>
    <style>
      .st0 {
        fill: #fff;
      }

      .st1 {
        fill: #7ccf8b;
      }

      .st2 {
        fill: url(#linear-gradient);
      }
    </style>
    <linearGradient id="linear-gradient" x1="9.03" y1="55.62" x2="374.72" y2="325.81" gradientUnits="userSpaceOnUse">
      <stop offset="0" stop-color="#00ad7c"/>
      <stop offset=".3" stop-color="#00855f"/>
      <stop offset=".77" stop-color="#014a35"/>
      <stop offset="1" stop-color="#023325"/>
    </linearGradient>
  </defs>
  <rect class="st2" x="0" y="0" width="374.86" height="374.86" rx="70.88" ry="70.88"/>
  <g>
    <path class="st0" d="M271.88,188.69c0-1.99.2-3.92.57-5.8l-45.74-.13-10.12-17.82c-1.57-2.77-5.13-4.06-8.11-3.15-2.72.82-3.89,3.43-4.79,6.51l-21.44,72.87-25.24-135.56c-.83-4.47-2.61-7.44-7.09-7.47-3.76-.02-5.77,2.52-7.05,6.38l-26.06,78.29-67.2.05c-3.38,0-5.75,3.92-5.61,6.72.12,2.49,2.56,6.23,5.63,6.23l71.76.08c3.05,0,5.66-2.34,6.61-5.09l20.55-59.48,25.58,138.32c.74,4.01,2.95,7.07,6.86,7.09,3.33.01,5.74-2.73,6.77-6.23l24.92-84.74c3,4.14,5.3,7.53,8.21,10.14l51.87-.05c-.58-2.29-.88-4.69-.88-7.16Z"/>
    <path class="st1" d="M306.72,159.61c-.12-.04-.24-.06-.36-.07-.17-.04-.34-.06-.51-.09-1.46-.22-2.96-.34-4.49-.34-3.06,0-6,.46-8.78,1.33-.22.06-.44.14-.66.22-.23.08-.47.16-.7.25-.09.03-.17.07-.25.11-9.42,3.54-16.55,11.74-18.55,21.8-.37,1.88-.57,3.81-.57,5.8,0,2.47.3,4.87.88,7.16,3.2,12.83,14.8,22.34,28.63,22.34,16.3,0,29.51-13.21,29.51-29.5,0-14.47-10.41-26.5-24.15-29.01ZM301.36,204.19c-8.6,0-15.58-6.97-15.58-15.57s6.98-15.58,15.58-15.58,15.58,6.97,15.58,15.58-6.98,15.57-15.58,15.57Z"/>
  </g>
</svg>